<svg width="231" height="231" viewBox="0 0 231 231" fill="none" xmlns="http://www.w3.org/2000/svg">
<path d="M0 0H231V231H0V0Z" fill="#F7F8FA"/>
<path d="M66.3334 131.711L56.6641 131.535C53.5334 131.474 50.3949 131.596 47.3257 130.96C42.6564 130.009 42.3257 125.346 41.9795 121.434C41.5026 115.935 41.6872 110.336 42.5872 104.883C43.0949 101.823 45.0949 99.9976 48.1872 99.7982C58.6257 99.0772 69.1334 99.1616 79.5487 99.4991C80.6487 99.5297 81.7564 99.6985 82.841 99.8902C88.1949 100.826 88.3257 106.11 88.6718 110.559C89.018 115.053 88.8718 119.57 88.2103 124.034C87.6795 127.731 86.6641 130.829 82.3795 131.129C77.0103 131.52 71.7641 131.834 66.3795 131.734C66.3795 131.711 66.3487 131.711 66.3334 131.711V131.711ZM60.6487 122.355C64.6949 120.038 68.6641 117.76 72.6872 115.46C68.6334 113.143 64.6718 110.865 60.6487 108.565V122.355Z" fill="#FF0000"/>
<path d="M166.229 127.508C166.044 128.26 165.883 128.85 165.721 129.479H161.937V100.373H166.352V111.111C166.583 110.819 166.698 110.696 166.798 110.566C167.552 109.531 168.529 108.856 169.79 108.595C171.798 108.204 173.513 109.086 174.121 111.011C174.513 112.207 174.767 113.488 174.798 114.738C174.86 117.952 174.813 121.158 174.698 124.371C174.652 125.353 174.352 126.358 173.975 127.278C172.737 130.315 168.69 130.775 166.683 128.145C166.56 127.984 166.444 127.807 166.229 127.508V127.508ZM166.444 119.501V124.824C166.444 125.69 166.906 126.22 167.775 126.419C168.629 126.618 169.321 126.289 169.667 125.499C169.813 125.169 169.96 124.824 169.967 124.479C170.052 121.227 170.129 117.975 170.152 114.715C170.152 114.109 170.006 113.48 169.821 112.89C169.475 111.824 168.521 111.509 167.583 112.131C166.875 112.606 166.444 113.281 166.444 114.178V119.501ZM154.444 109.009H159.067V129.495H155.46C155.329 128.72 155.198 127.922 155.044 126.987C154.798 127.347 154.652 127.577 154.498 127.807C153.298 129.533 151.598 130.123 149.59 129.809C147.875 129.533 146.844 128.214 146.613 126.051C146.544 125.407 146.513 124.755 146.513 124.11C146.498 119.317 146.513 114.508 146.513 109.715V108.994H151.19V109.83C151.19 114.462 151.175 119.087 151.206 123.719C151.206 124.379 151.275 125.062 151.39 125.721C151.521 126.396 152.013 126.641 152.675 126.595C153.744 126.511 154.483 125.721 154.483 124.663V109.914C154.444 109.615 154.444 109.339 154.444 109.009V109.009ZM122.613 108.994H127.26V109.86C127.26 114.47 127.244 119.072 127.275 123.666C127.275 124.325 127.337 125.008 127.475 125.652C127.652 126.411 128.098 126.657 128.86 126.557C129.913 126.411 130.552 125.683 130.56 124.617V109.945V109.024H135.183V129.495H131.59C131.46 128.735 131.329 127.953 131.16 126.964C130.929 127.309 130.798 127.508 130.667 127.715C129.467 129.472 127.783 130.116 125.729 129.801C124.083 129.556 123.075 128.344 122.767 126.358C122.683 125.736 122.621 125.123 122.621 124.502C122.606 119.524 122.606 114.523 122.606 109.546L122.613 108.994ZM120.229 119.931C120.213 120.621 120.167 121.311 120.129 122.001C119.952 124.072 119.867 127.01 118.19 128.521C117.121 129.472 115.767 129.817 114.367 129.863C113.744 129.878 113.113 129.878 112.49 129.794C109.544 129.349 108.175 128.053 107.683 124.824C107.121 121.096 107.075 117.308 107.744 113.58C108.437 109.722 110.821 108.357 114.529 108.61C117.99 108.856 119.537 111.118 119.944 114.339C120.167 116.188 120.275 118.059 120.229 119.931V119.931ZM115.521 119.225C115.521 117.913 115.552 116.594 115.506 115.283C115.475 114.523 115.375 113.757 115.213 113.005C115.029 112.138 114.475 111.724 113.783 111.739C113.106 111.755 112.629 112.169 112.383 112.974C112.298 113.273 112.206 113.58 112.206 113.879C112.206 115.935 112.19 117.998 112.175 120.053C112.16 121.971 111.913 123.98 112.521 125.813C112.706 126.373 113.183 126.68 113.806 126.68C114.413 126.68 114.813 126.381 115.037 125.844C115.213 125.43 115.367 124.977 115.367 124.532C115.421 122.768 115.521 120.997 115.521 119.225ZM100.898 115.367C101.306 113.381 101.69 111.44 102.113 109.492C102.644 107.015 103.237 104.538 103.76 102.053C103.89 101.447 104.137 101.301 104.713 101.316C105.952 101.362 107.213 101.332 108.537 101.332C108.106 102.912 107.683 104.415 107.267 105.895C105.952 110.543 104.637 115.206 103.337 119.869C103.237 120.23 103.19 120.621 103.19 121.004C103.175 123.551 103.19 126.089 103.19 128.636V129.464H98.675C98.6596 129.234 98.6289 129.004 98.6289 128.774C98.6289 127.332 98.5135 125.882 98.6442 124.456C98.975 121.027 97.8827 117.875 96.9981 114.685C95.8289 110.466 94.6442 106.233 93.475 102.014C93.4135 101.815 93.3904 101.6 93.3289 101.355H97.9365C98.9058 106.01 99.8827 110.666 100.898 115.367ZM189.244 120.713H181.46C181.544 122.27 181.575 123.75 181.736 125.215C181.852 126.235 182.413 126.672 183.298 126.68C184.221 126.695 184.76 126.235 184.975 125.223C185.044 124.893 185.09 124.563 185.121 124.226C185.152 123.926 185.167 123.604 185.19 123.175C186.506 123.244 187.79 123.321 189.06 123.374C189.798 125.56 188.467 128.367 186.229 129.234C184.467 129.924 182.66 129.924 180.86 129.395C179.529 129.004 178.536 128.16 178.09 126.864C177.675 125.652 177.283 124.387 177.198 123.121C176.967 120 176.883 116.847 177.36 113.718C177.444 113.197 177.59 112.698 177.752 112.192C178.398 110.106 179.806 108.825 181.983 108.61C183.167 108.495 184.39 108.541 185.56 108.741C187.452 109.07 188.46 110.428 188.898 112.207C189.098 113.043 189.244 113.902 189.275 114.754C189.283 116.709 189.244 118.65 189.244 120.713ZM184.821 118.021C184.821 116.479 184.836 115.03 184.806 113.572C184.806 113.227 184.675 112.867 184.544 112.537C184.283 111.893 183.736 111.716 183.083 111.716C182.429 111.716 182.013 112.046 181.852 112.637C181.36 114.408 181.521 116.218 181.536 118.036C182.713 118.021 183.783 118.021 184.821 118.021V118.021Z" fill="#14192B"/>
<path d="M138.752 105.09H134.175V101.394H147.836V105.067H143.29V129.464H138.759L138.752 105.09Z" fill="#14192B"/>
</svg>
