<svg width="231" height="231" viewBox="0 0 231 231" fill="none" xmlns="http://www.w3.org/2000/svg">
<path d="M0 0H231V231H0V0Z" fill="#F7F8FA"/>
<path d="M39.7798 131.713H33.2455V115.475H28.7942V110.188H33.2453V106.426C33.2453 101.968 35.2141 98.771 41.7307 98.771C43.109 98.771 45.2728 99.0479 45.2728 99.0479V103.957H43.0001C40.6843 103.957 39.7802 104.659 39.7802 106.601V110.188H45.1861L44.7047 115.475H39.78L39.7798 131.713ZM54.773 109.766C54.6778 109.766 54.5798 109.769 54.4829 109.771C48.4239 109.771 45.6517 114.315 45.6517 120.764C45.6517 128.889 49.2476 132.14 54.5302 132.14C57.5526 132.14 59.5384 130.872 60.7453 128.506V131.715H66.9604V110.19H60.7453V113.501C59.7598 111.371 57.7186 109.791 54.773 109.766ZM56.3533 114.852C58.8981 114.852 60.4256 116.621 60.4256 119.631L60.4315 122.705C60.4315 124.734 59.1699 127.107 56.3533 127.107C52.0232 127.107 52.1389 122.446 52.1389 120.894C52.1389 115.672 54.446 114.852 56.3533 114.852ZM69.4704 120.954C69.4704 118.338 69.3448 109.78 80.5306 109.78C85.0207 109.78 86.8957 111.203 86.8957 111.203L85.3887 115.862C85.3887 115.862 83.5162 114.834 81.0763 114.834C77.9513 114.834 75.9572 116.64 75.9572 119.818L75.9607 122.096C75.9607 125.149 77.8847 127.187 81.0827 127.187C83.3055 127.187 85.3542 126.15 85.3542 126.15L86.8573 130.712C86.8573 130.712 85.143 132.144 80.562 132.144C69.9114 132.144 69.4705 124.465 69.4705 120.954H69.4704ZM123.337 109.771C129.396 109.771 132.212 114.315 132.212 120.764C132.212 128.889 128.616 132.14 123.333 132.14C120.311 132.14 118.077 130.872 116.87 128.506V131.715L110.733 131.713V99.4255L117.249 98.859V113.209C118.189 110.698 121.28 109.771 123.337 109.771H123.337ZM121.51 114.852C118.965 114.852 117.249 116.621 117.249 119.631L117.243 122.705C117.239 124.734 118.431 127.107 121.51 127.107C125.84 127.107 125.725 122.446 125.725 120.894C125.725 115.672 123.418 114.852 121.51 114.852ZM98.2011 109.789C91.3288 109.789 87.7006 113.524 87.7006 120.162V121.396C87.7006 130.011 92.7957 132.229 98.8699 132.229C104.774 132.229 107.447 130.583 107.447 130.583L106.227 126.199C106.227 126.199 103.084 127.532 99.6512 127.532C96.0927 127.532 94.5624 126.628 94.1701 123.219H107.967V119.702C107.967 112.502 103.896 109.789 98.2009 109.789L98.2011 109.789ZM98.3667 114.179C100.746 114.179 102.287 115.633 102.202 119.006H94.1821C94.3212 115.456 95.9835 114.179 98.3667 114.179V114.179ZM145.204 109.76C138.147 109.76 134.431 113.724 134.431 120.829C134.431 130.577 140.836 132.146 145.216 132.146C151.628 132.146 155.894 128.705 155.894 120.918C155.894 112.812 151.097 109.76 145.204 109.76V109.76ZM145.115 114.87C148.219 114.87 149.448 117.185 149.448 119.82V122.086C149.448 125.278 147.728 127.125 145.104 127.125C142.649 127.125 140.925 125.398 140.925 122.086V119.82C140.925 116.288 142.977 114.87 145.115 114.87V114.87ZM168.875 109.76C161.817 109.76 158.102 113.724 158.102 120.829C158.102 130.577 164.506 132.146 168.886 132.146C175.298 132.146 179.564 128.705 179.564 120.918C179.564 112.812 174.768 109.76 168.875 109.76V109.76ZM168.786 114.87C171.889 114.87 173.118 117.185 173.118 119.82V122.086C173.118 125.278 171.398 127.125 168.774 127.125C166.32 127.125 164.595 125.398 164.595 122.086V119.82C164.595 116.288 166.647 114.87 168.786 114.87V114.87ZM182.027 131.713V99.4255L188.561 98.859V120.5L195.045 110.188H201.946L195.183 120.868L202.206 131.713H195.285L188.561 121.183V131.713H182.027Z" fill="#2D88FF"/>
</svg>
